<mxfile host="app.diagrams.net" modified="2023-05-13T08:43:21.532Z" agent="Mozilla/5.0 (Windows NT 10.0; Win64; x64) AppleWebKit/537.36 (KHTML, like Gecko) Chrome/113.0.0.0 Safari/537.36" etag="Fd_-ijpAUZ2w7590FCUP" version="21.3.0" type="device">
  <diagram name="Page-1" id="13e1069c-82ec-6db2-03f1-153e76fe0fe0">
    <mxGraphModel dx="768" dy="428" grid="1" gridSize="10" guides="1" tooltips="1" connect="1" arrows="1" fold="1" page="1" pageScale="1" pageWidth="1100" pageHeight="850" background="none" math="0" shadow="0">
      <root>
        <mxCell id="0" />
        <mxCell id="1" parent="0" />
        <mxCell id="7baba1c4bc27f4b0-2" value="TuneWave:Executabil" style="shape=umlLifeline;perimeter=lifelinePerimeter;whiteSpace=wrap;html=1;container=1;collapsible=0;recursiveResize=0;outlineConnect=0;rounded=1;shadow=0;comic=0;labelBackgroundColor=none;strokeWidth=1;fontFamily=Verdana;fontSize=12;align=center;" parent="1" vertex="1">
          <mxGeometry x="290" y="80" width="140" height="320" as="geometry" />
        </mxCell>
        <mxCell id="7baba1c4bc27f4b0-10" value="" style="html=1;points=[];perimeter=orthogonalPerimeter;rounded=0;shadow=0;comic=0;labelBackgroundColor=none;strokeWidth=1;fontFamily=Verdana;fontSize=12;align=center;" parent="7baba1c4bc27f4b0-2" vertex="1">
          <mxGeometry x="65" y="100" width="10" height="30" as="geometry" />
        </mxCell>
        <mxCell id="FXzULWjpIRxWepguY-2J-3" value="Afișează meniul cu opțiuni" style="html=1;verticalAlign=bottom;endArrow=open;dashed=1;endSize=8;edgeStyle=elbowEdgeStyle;elbow=vertical;curved=0;rounded=0;" edge="1" parent="7baba1c4bc27f4b0-2" target="7baba1c4bc27f4b0-8">
          <mxGeometry relative="1" as="geometry">
            <mxPoint x="65" y="130.07" as="sourcePoint" />
            <mxPoint x="-15" y="130.07" as="targetPoint" />
          </mxGeometry>
        </mxCell>
        <mxCell id="FXzULWjpIRxWepguY-2J-9" value="" style="html=1;points=[];perimeter=orthogonalPerimeter;outlineConnect=0;targetShapes=umlLifeline;portConstraint=eastwest;newEdgeStyle={&quot;edgeStyle&quot;:&quot;elbowEdgeStyle&quot;,&quot;elbow&quot;:&quot;vertical&quot;,&quot;curved&quot;:0,&quot;rounded&quot;:0};" vertex="1" parent="7baba1c4bc27f4b0-2">
          <mxGeometry x="65" y="180" width="10" height="50" as="geometry" />
        </mxCell>
        <mxCell id="FXzULWjpIRxWepguY-2J-10" value="Cere fișierul mp3 ce trebuie redat" style="html=1;verticalAlign=bottom;endArrow=open;dashed=1;endSize=8;edgeStyle=elbowEdgeStyle;elbow=vertical;curved=0;rounded=0;" edge="1" parent="7baba1c4bc27f4b0-2" target="7baba1c4bc27f4b0-8">
          <mxGeometry relative="1" as="geometry">
            <mxPoint x="65" y="219.65999999999997" as="sourcePoint" />
            <mxPoint x="-15" y="219.65999999999997" as="targetPoint" />
          </mxGeometry>
        </mxCell>
        <mxCell id="FXzULWjpIRxWepguY-2J-18" value="" style="html=1;points=[];perimeter=orthogonalPerimeter;outlineConnect=0;targetShapes=umlLifeline;portConstraint=eastwest;newEdgeStyle={&quot;edgeStyle&quot;:&quot;elbowEdgeStyle&quot;,&quot;elbow&quot;:&quot;vertical&quot;,&quot;curved&quot;:0,&quot;rounded&quot;:0};" vertex="1" parent="7baba1c4bc27f4b0-2">
          <mxGeometry x="70" y="260" width="10" height="40" as="geometry" />
        </mxCell>
        <mxCell id="FXzULWjpIRxWepguY-2J-19" value="Selectează un fișier mp3" style="html=1;verticalAlign=bottom;endArrow=block;edgeStyle=elbowEdgeStyle;elbow=vertical;curved=0;rounded=0;" edge="1" target="FXzULWjpIRxWepguY-2J-18" parent="7baba1c4bc27f4b0-2">
          <mxGeometry x="0.4286" relative="1" as="geometry">
            <mxPoint y="260" as="sourcePoint" />
            <Array as="points">
              <mxPoint x="-140" y="260" />
            </Array>
            <mxPoint as="offset" />
          </mxGeometry>
        </mxCell>
        <mxCell id="7baba1c4bc27f4b0-8" value="utilizator:Utilizator" style="shape=umlLifeline;perimeter=lifelinePerimeter;whiteSpace=wrap;html=1;container=1;collapsible=0;recursiveResize=0;outlineConnect=0;rounded=1;shadow=0;comic=0;labelBackgroundColor=none;strokeWidth=1;fontFamily=Verdana;fontSize=12;align=center;" parent="1" vertex="1">
          <mxGeometry x="90" y="80" width="120" height="320" as="geometry" />
        </mxCell>
        <mxCell id="FXzULWjpIRxWepguY-2J-2" value="" style="html=1;points=[];perimeter=orthogonalPerimeter;rounded=0;shadow=0;comic=0;labelBackgroundColor=none;strokeWidth=1;fontFamily=Verdana;fontSize=12;align=center;" vertex="1" parent="7baba1c4bc27f4b0-8">
          <mxGeometry x="55" y="80" width="10" height="60" as="geometry" />
        </mxCell>
        <mxCell id="FXzULWjpIRxWepguY-2J-7" value="" style="html=1;points=[];perimeter=orthogonalPerimeter;outlineConnect=0;targetShapes=umlLifeline;portConstraint=eastwest;newEdgeStyle={&quot;edgeStyle&quot;:&quot;elbowEdgeStyle&quot;,&quot;elbow&quot;:&quot;vertical&quot;,&quot;curved&quot;:0,&quot;rounded&quot;:0};" vertex="1" parent="7baba1c4bc27f4b0-8">
          <mxGeometry x="55" y="170" width="10" height="60" as="geometry" />
        </mxCell>
        <mxCell id="FXzULWjpIRxWepguY-2J-21" value="" style="html=1;points=[];perimeter=orthogonalPerimeter;outlineConnect=0;targetShapes=umlLifeline;portConstraint=eastwest;newEdgeStyle={&quot;edgeStyle&quot;:&quot;elbowEdgeStyle&quot;,&quot;elbow&quot;:&quot;vertical&quot;,&quot;curved&quot;:0,&quot;rounded&quot;:0};" vertex="1" parent="7baba1c4bc27f4b0-8">
          <mxGeometry x="55" y="250" width="10" height="50" as="geometry" />
        </mxCell>
        <mxCell id="7baba1c4bc27f4b0-11" value="Apasă pe Meniu" style="html=1;verticalAlign=bottom;endArrow=block;entryX=0;entryY=0;labelBackgroundColor=none;fontFamily=Verdana;fontSize=12;edgeStyle=elbowEdgeStyle;elbow=vertical;exitX=1;exitY=0.333;exitDx=0;exitDy=0;exitPerimeter=0;" parent="1" source="FXzULWjpIRxWepguY-2J-2" target="7baba1c4bc27f4b0-10" edge="1">
          <mxGeometry x="-0.0015" relative="1" as="geometry">
            <mxPoint x="160" y="180" as="sourcePoint" />
            <mxPoint as="offset" />
          </mxGeometry>
        </mxCell>
        <mxCell id="7baba1c4bc27f4b0-40" value="Utilizator când dorește să redea un fișier mp3" style="shape=note;whiteSpace=wrap;html=1;size=14;verticalAlign=top;align=left;spacingTop=-6;rounded=0;shadow=0;comic=0;labelBackgroundColor=none;strokeWidth=1;fontFamily=Verdana;fontSize=12" parent="1" vertex="1">
          <mxGeometry x="70" y="10" width="130" height="55" as="geometry" />
        </mxCell>
        <mxCell id="7baba1c4bc27f4b0-41" value="TuneWave&lt;br&gt;" style="shape=note;whiteSpace=wrap;html=1;size=14;verticalAlign=top;align=left;spacingTop=-6;rounded=0;shadow=0;comic=0;labelBackgroundColor=none;strokeWidth=1;fontFamily=Verdana;fontSize=12" parent="1" vertex="1">
          <mxGeometry x="240" y="30" width="100" height="35" as="geometry" />
        </mxCell>
        <mxCell id="FXzULWjpIRxWepguY-2J-8" value="Apasă pe Deschidere fișier" style="html=1;verticalAlign=bottom;endArrow=block;edgeStyle=elbowEdgeStyle;elbow=vertical;curved=0;rounded=0;" edge="1" parent="1" source="FXzULWjpIRxWepguY-2J-7" target="7baba1c4bc27f4b0-2">
          <mxGeometry width="80" relative="1" as="geometry">
            <mxPoint x="160" y="260" as="sourcePoint" />
            <mxPoint x="225" y="260" as="targetPoint" />
            <Array as="points">
              <mxPoint x="160" y="260" />
            </Array>
          </mxGeometry>
        </mxCell>
        <mxCell id="FXzULWjpIRxWepguY-2J-20" value="Redă conținutul fișierului" style="html=1;verticalAlign=bottom;endArrow=open;dashed=1;endSize=8;edgeStyle=elbowEdgeStyle;elbow=vertical;curved=0;rounded=0;" edge="1" source="FXzULWjpIRxWepguY-2J-18" parent="1" target="7baba1c4bc27f4b0-8">
          <mxGeometry relative="1" as="geometry">
            <mxPoint x="290" y="415" as="targetPoint" />
            <Array as="points">
              <mxPoint x="320" y="380" />
            </Array>
          </mxGeometry>
        </mxCell>
        <mxCell id="FXzULWjpIRxWepguY-2J-22" value="TuneWave:Executabil" style="shape=umlLifeline;perimeter=lifelinePerimeter;whiteSpace=wrap;html=1;container=1;collapsible=0;recursiveResize=0;outlineConnect=0;rounded=1;shadow=0;comic=0;labelBackgroundColor=none;strokeWidth=1;fontFamily=Verdana;fontSize=12;align=center;" vertex="1" parent="1">
          <mxGeometry x="690" y="80" width="140" height="480" as="geometry" />
        </mxCell>
        <mxCell id="FXzULWjpIRxWepguY-2J-23" value="" style="html=1;points=[];perimeter=orthogonalPerimeter;rounded=0;shadow=0;comic=0;labelBackgroundColor=none;strokeWidth=1;fontFamily=Verdana;fontSize=12;align=center;" vertex="1" parent="FXzULWjpIRxWepguY-2J-22">
          <mxGeometry x="65" y="100" width="10" height="30" as="geometry" />
        </mxCell>
        <mxCell id="FXzULWjpIRxWepguY-2J-24" value="Afișează meniul cu opțiuni" style="html=1;verticalAlign=bottom;endArrow=open;dashed=1;endSize=8;edgeStyle=elbowEdgeStyle;elbow=vertical;curved=0;rounded=0;" edge="1" parent="FXzULWjpIRxWepguY-2J-22" target="FXzULWjpIRxWepguY-2J-29">
          <mxGeometry relative="1" as="geometry">
            <mxPoint x="65" y="130.07" as="sourcePoint" />
            <mxPoint x="-15" y="130.07" as="targetPoint" />
          </mxGeometry>
        </mxCell>
        <mxCell id="FXzULWjpIRxWepguY-2J-25" value="" style="html=1;points=[];perimeter=orthogonalPerimeter;outlineConnect=0;targetShapes=umlLifeline;portConstraint=eastwest;newEdgeStyle={&quot;edgeStyle&quot;:&quot;elbowEdgeStyle&quot;,&quot;elbow&quot;:&quot;vertical&quot;,&quot;curved&quot;:0,&quot;rounded&quot;:0};" vertex="1" parent="FXzULWjpIRxWepguY-2J-22">
          <mxGeometry x="65" y="180" width="10" height="50" as="geometry" />
        </mxCell>
        <mxCell id="FXzULWjpIRxWepguY-2J-26" value="Cere playlist-ul ce trebuie redat" style="html=1;verticalAlign=bottom;endArrow=open;dashed=1;endSize=8;edgeStyle=elbowEdgeStyle;elbow=vertical;curved=0;rounded=0;" edge="1" parent="FXzULWjpIRxWepguY-2J-22" target="FXzULWjpIRxWepguY-2J-29">
          <mxGeometry relative="1" as="geometry">
            <mxPoint x="65" y="219.65999999999997" as="sourcePoint" />
            <mxPoint x="-15" y="219.65999999999997" as="targetPoint" />
          </mxGeometry>
        </mxCell>
        <mxCell id="FXzULWjpIRxWepguY-2J-27" value="" style="html=1;points=[];perimeter=orthogonalPerimeter;outlineConnect=0;targetShapes=umlLifeline;portConstraint=eastwest;newEdgeStyle={&quot;edgeStyle&quot;:&quot;elbowEdgeStyle&quot;,&quot;elbow&quot;:&quot;vertical&quot;,&quot;curved&quot;:0,&quot;rounded&quot;:0};" vertex="1" parent="FXzULWjpIRxWepguY-2J-22">
          <mxGeometry x="70" y="260" width="10" height="40" as="geometry" />
        </mxCell>
        <mxCell id="FXzULWjpIRxWepguY-2J-28" value="Selectează un playlist valid" style="html=1;verticalAlign=bottom;endArrow=block;edgeStyle=elbowEdgeStyle;elbow=vertical;curved=0;rounded=0;" edge="1" parent="FXzULWjpIRxWepguY-2J-22" target="FXzULWjpIRxWepguY-2J-27">
          <mxGeometry x="0.4286" relative="1" as="geometry">
            <mxPoint y="260" as="sourcePoint" />
            <Array as="points">
              <mxPoint x="-150" y="260" />
            </Array>
            <mxPoint as="offset" />
          </mxGeometry>
        </mxCell>
        <mxCell id="FXzULWjpIRxWepguY-2J-41" value="" style="html=1;points=[];perimeter=orthogonalPerimeter;outlineConnect=0;targetShapes=umlLifeline;portConstraint=eastwest;newEdgeStyle={&quot;edgeStyle&quot;:&quot;elbowEdgeStyle&quot;,&quot;elbow&quot;:&quot;vertical&quot;,&quot;curved&quot;:0,&quot;rounded&quot;:0};" vertex="1" parent="FXzULWjpIRxWepguY-2J-22">
          <mxGeometry x="65" y="330.07" width="10" height="59.93" as="geometry" />
        </mxCell>
        <mxCell id="FXzULWjpIRxWepguY-2J-45" value="" style="html=1;points=[];perimeter=orthogonalPerimeter;outlineConnect=0;targetShapes=umlLifeline;portConstraint=eastwest;newEdgeStyle={&quot;edgeStyle&quot;:&quot;elbowEdgeStyle&quot;,&quot;elbow&quot;:&quot;vertical&quot;,&quot;curved&quot;:0,&quot;rounded&quot;:0};" vertex="1" parent="FXzULWjpIRxWepguY-2J-22">
          <mxGeometry x="65" y="420" width="10" height="30" as="geometry" />
        </mxCell>
        <mxCell id="FXzULWjpIRxWepguY-2J-46" value="Selectează bifa Random și bifa Loop e dezactivată" style="html=1;verticalAlign=bottom;endArrow=block;edgeStyle=elbowEdgeStyle;elbow=vertical;curved=0;rounded=0;" edge="1" target="FXzULWjpIRxWepguY-2J-45" parent="FXzULWjpIRxWepguY-2J-22">
          <mxGeometry x="0.5588" relative="1" as="geometry">
            <mxPoint x="-5" y="420" as="sourcePoint" />
            <Array as="points">
              <mxPoint x="-160" y="420" />
            </Array>
            <mxPoint as="offset" />
          </mxGeometry>
        </mxCell>
        <mxCell id="FXzULWjpIRxWepguY-2J-29" value="utilizator:Utilizator" style="shape=umlLifeline;perimeter=lifelinePerimeter;whiteSpace=wrap;html=1;container=1;collapsible=0;recursiveResize=0;outlineConnect=0;rounded=1;shadow=0;comic=0;labelBackgroundColor=none;strokeWidth=1;fontFamily=Verdana;fontSize=12;align=center;" vertex="1" parent="1">
          <mxGeometry x="470" y="80" width="130" height="490" as="geometry" />
        </mxCell>
        <mxCell id="FXzULWjpIRxWepguY-2J-30" value="" style="html=1;points=[];perimeter=orthogonalPerimeter;rounded=0;shadow=0;comic=0;labelBackgroundColor=none;strokeWidth=1;fontFamily=Verdana;fontSize=12;align=center;" vertex="1" parent="FXzULWjpIRxWepguY-2J-29">
          <mxGeometry x="60" y="85" width="10" height="60" as="geometry" />
        </mxCell>
        <mxCell id="FXzULWjpIRxWepguY-2J-31" value="" style="html=1;points=[];perimeter=orthogonalPerimeter;outlineConnect=0;targetShapes=umlLifeline;portConstraint=eastwest;newEdgeStyle={&quot;edgeStyle&quot;:&quot;elbowEdgeStyle&quot;,&quot;elbow&quot;:&quot;vertical&quot;,&quot;curved&quot;:0,&quot;rounded&quot;:0};" vertex="1" parent="FXzULWjpIRxWepguY-2J-29">
          <mxGeometry x="60" y="170" width="10" height="60" as="geometry" />
        </mxCell>
        <mxCell id="FXzULWjpIRxWepguY-2J-32" value="" style="html=1;points=[];perimeter=orthogonalPerimeter;outlineConnect=0;targetShapes=umlLifeline;portConstraint=eastwest;newEdgeStyle={&quot;edgeStyle&quot;:&quot;elbowEdgeStyle&quot;,&quot;elbow&quot;:&quot;vertical&quot;,&quot;curved&quot;:0,&quot;rounded&quot;:0};" vertex="1" parent="FXzULWjpIRxWepguY-2J-29">
          <mxGeometry x="60" y="250" width="10" height="50" as="geometry" />
        </mxCell>
        <mxCell id="FXzULWjpIRxWepguY-2J-44" value="" style="html=1;points=[];perimeter=orthogonalPerimeter;outlineConnect=0;targetShapes=umlLifeline;portConstraint=eastwest;newEdgeStyle={&quot;edgeStyle&quot;:&quot;elbowEdgeStyle&quot;,&quot;elbow&quot;:&quot;vertical&quot;,&quot;curved&quot;:0,&quot;rounded&quot;:0};" vertex="1" parent="FXzULWjpIRxWepguY-2J-29">
          <mxGeometry x="60" y="320" width="10" height="70" as="geometry" />
        </mxCell>
        <mxCell id="FXzULWjpIRxWepguY-2J-48" value="" style="html=1;points=[];perimeter=orthogonalPerimeter;outlineConnect=0;targetShapes=umlLifeline;portConstraint=eastwest;newEdgeStyle={&quot;edgeStyle&quot;:&quot;elbowEdgeStyle&quot;,&quot;elbow&quot;:&quot;vertical&quot;,&quot;curved&quot;:0,&quot;rounded&quot;:0};" vertex="1" parent="FXzULWjpIRxWepguY-2J-29">
          <mxGeometry x="60" y="410" width="10" height="50" as="geometry" />
        </mxCell>
        <mxCell id="FXzULWjpIRxWepguY-2J-33" value="Apasă pe Meniu" style="html=1;verticalAlign=bottom;endArrow=block;labelBackgroundColor=none;fontFamily=Verdana;fontSize=12;edgeStyle=elbowEdgeStyle;elbow=vertical;exitX=1;exitY=0.333;exitDx=0;exitDy=0;exitPerimeter=0;" edge="1" parent="1" source="FXzULWjpIRxWepguY-2J-30" target="FXzULWjpIRxWepguY-2J-22">
          <mxGeometry x="-0.0015" relative="1" as="geometry">
            <mxPoint x="560" y="180" as="sourcePoint" />
            <mxPoint as="offset" />
            <mxPoint x="740" y="185" as="targetPoint" />
          </mxGeometry>
        </mxCell>
        <mxCell id="FXzULWjpIRxWepguY-2J-34" value="Utilizator când dorește să redea un playlist" style="shape=note;whiteSpace=wrap;html=1;size=14;verticalAlign=top;align=left;spacingTop=-6;rounded=0;shadow=0;comic=0;labelBackgroundColor=none;strokeWidth=1;fontFamily=Verdana;fontSize=12" vertex="1" parent="1">
          <mxGeometry x="480" y="10" width="120" height="55" as="geometry" />
        </mxCell>
        <mxCell id="FXzULWjpIRxWepguY-2J-35" value="TuneWave&lt;br&gt;" style="shape=note;whiteSpace=wrap;html=1;size=14;verticalAlign=top;align=left;spacingTop=-6;rounded=0;shadow=0;comic=0;labelBackgroundColor=none;strokeWidth=1;fontFamily=Verdana;fontSize=12" vertex="1" parent="1">
          <mxGeometry x="700" y="20" width="100" height="35" as="geometry" />
        </mxCell>
        <mxCell id="FXzULWjpIRxWepguY-2J-36" value="Apasă pe Deschidere playlist" style="html=1;verticalAlign=bottom;endArrow=block;edgeStyle=elbowEdgeStyle;elbow=vertical;curved=0;rounded=0;" edge="1" parent="1" source="FXzULWjpIRxWepguY-2J-31" target="FXzULWjpIRxWepguY-2J-22">
          <mxGeometry width="80" relative="1" as="geometry">
            <mxPoint x="560" y="260" as="sourcePoint" />
            <mxPoint x="625" y="260" as="targetPoint" />
            <Array as="points">
              <mxPoint x="560" y="260" />
            </Array>
          </mxGeometry>
        </mxCell>
        <mxCell id="FXzULWjpIRxWepguY-2J-37" value="Redă prima melodie din playlist" style="html=1;verticalAlign=bottom;endArrow=open;dashed=1;endSize=8;edgeStyle=elbowEdgeStyle;elbow=vertical;curved=0;rounded=0;" edge="1" parent="1" source="FXzULWjpIRxWepguY-2J-27" target="FXzULWjpIRxWepguY-2J-29">
          <mxGeometry relative="1" as="geometry">
            <mxPoint x="690" y="415" as="targetPoint" />
            <Array as="points">
              <mxPoint x="720" y="380" />
            </Array>
          </mxGeometry>
        </mxCell>
        <mxCell id="FXzULWjpIRxWepguY-2J-42" value="Selectează bifa Loop" style="html=1;verticalAlign=bottom;endArrow=block;edgeStyle=elbowEdgeStyle;elbow=vertical;curved=0;rounded=0;" edge="1" target="FXzULWjpIRxWepguY-2J-41" parent="1" source="FXzULWjpIRxWepguY-2J-44">
          <mxGeometry relative="1" as="geometry">
            <mxPoint x="560" y="410" as="sourcePoint" />
            <Array as="points">
              <mxPoint x="683" y="410" />
            </Array>
          </mxGeometry>
        </mxCell>
        <mxCell id="FXzULWjpIRxWepguY-2J-43" value="Va reda melodia curentă în loop" style="html=1;verticalAlign=bottom;endArrow=open;dashed=1;endSize=8;edgeStyle=elbowEdgeStyle;elbow=vertical;curved=0;rounded=0;entryX=0.5;entryY=0.857;entryDx=0;entryDy=0;entryPerimeter=0;" edge="1" source="FXzULWjpIRxWepguY-2J-41" parent="1" target="FXzULWjpIRxWepguY-2J-44">
          <mxGeometry x="0.0016" relative="1" as="geometry">
            <mxPoint x="560" y="460" as="targetPoint" />
            <Array as="points">
              <mxPoint x="730" y="460" />
              <mxPoint x="730" y="450" />
            </Array>
            <mxPoint as="offset" />
          </mxGeometry>
        </mxCell>
        <mxCell id="FXzULWjpIRxWepguY-2J-47" value="Melodiile vor fi redate în ordine aleatoare" style="html=1;verticalAlign=bottom;endArrow=open;dashed=1;endSize=8;edgeStyle=elbowEdgeStyle;elbow=vertical;curved=0;rounded=0;" edge="1" source="FXzULWjpIRxWepguY-2J-45" parent="1" target="FXzULWjpIRxWepguY-2J-29">
          <mxGeometry relative="1" as="geometry">
            <mxPoint x="580" y="530" as="targetPoint" />
            <Array as="points">
              <mxPoint x="730" y="530" />
            </Array>
          </mxGeometry>
        </mxCell>
        <mxCell id="FXzULWjpIRxWepguY-2J-50" value="TuneWave:Executabil" style="shape=umlLifeline;perimeter=lifelinePerimeter;whiteSpace=wrap;html=1;container=1;collapsible=0;recursiveResize=0;outlineConnect=0;rounded=1;shadow=0;comic=0;labelBackgroundColor=none;strokeWidth=1;fontFamily=Verdana;fontSize=12;align=center;" vertex="1" parent="1">
          <mxGeometry x="1070" y="80" width="140" height="340" as="geometry" />
        </mxCell>
        <mxCell id="FXzULWjpIRxWepguY-2J-51" value="" style="html=1;points=[];perimeter=orthogonalPerimeter;rounded=0;shadow=0;comic=0;labelBackgroundColor=none;strokeWidth=1;fontFamily=Verdana;fontSize=12;align=center;" vertex="1" parent="FXzULWjpIRxWepguY-2J-50">
          <mxGeometry x="65" y="100" width="10" height="30" as="geometry" />
        </mxCell>
        <mxCell id="FXzULWjpIRxWepguY-2J-52" value="Afișează meniul cu opțiuni" style="html=1;verticalAlign=bottom;endArrow=open;dashed=1;endSize=8;edgeStyle=elbowEdgeStyle;elbow=vertical;curved=0;rounded=0;" edge="1" parent="FXzULWjpIRxWepguY-2J-50" target="FXzULWjpIRxWepguY-2J-60">
          <mxGeometry relative="1" as="geometry">
            <mxPoint x="65" y="130.07" as="sourcePoint" />
            <mxPoint x="-15" y="130.07" as="targetPoint" />
          </mxGeometry>
        </mxCell>
        <mxCell id="FXzULWjpIRxWepguY-2J-53" value="" style="html=1;points=[];perimeter=orthogonalPerimeter;outlineConnect=0;targetShapes=umlLifeline;portConstraint=eastwest;newEdgeStyle={&quot;edgeStyle&quot;:&quot;elbowEdgeStyle&quot;,&quot;elbow&quot;:&quot;vertical&quot;,&quot;curved&quot;:0,&quot;rounded&quot;:0};" vertex="1" parent="FXzULWjpIRxWepguY-2J-50">
          <mxGeometry x="65" y="180" width="10" height="50" as="geometry" />
        </mxCell>
        <mxCell id="FXzULWjpIRxWepguY-2J-54" value="Redă primul post radio din lista predefinită" style="html=1;verticalAlign=bottom;endArrow=open;dashed=1;endSize=8;edgeStyle=elbowEdgeStyle;elbow=vertical;curved=0;rounded=0;" edge="1" parent="FXzULWjpIRxWepguY-2J-50" target="FXzULWjpIRxWepguY-2J-60">
          <mxGeometry relative="1" as="geometry">
            <mxPoint x="65" y="219.65999999999997" as="sourcePoint" />
            <mxPoint x="-15" y="219.65999999999997" as="targetPoint" />
          </mxGeometry>
        </mxCell>
        <mxCell id="FXzULWjpIRxWepguY-2J-55" value="" style="html=1;points=[];perimeter=orthogonalPerimeter;outlineConnect=0;targetShapes=umlLifeline;portConstraint=eastwest;newEdgeStyle={&quot;edgeStyle&quot;:&quot;elbowEdgeStyle&quot;,&quot;elbow&quot;:&quot;vertical&quot;,&quot;curved&quot;:0,&quot;rounded&quot;:0};" vertex="1" parent="FXzULWjpIRxWepguY-2J-50">
          <mxGeometry x="70" y="260" width="10" height="40" as="geometry" />
        </mxCell>
        <mxCell id="FXzULWjpIRxWepguY-2J-56" value="Selectează un alt post de radio" style="html=1;verticalAlign=bottom;endArrow=block;edgeStyle=elbowEdgeStyle;elbow=vertical;curved=0;rounded=0;" edge="1" parent="FXzULWjpIRxWepguY-2J-50" target="FXzULWjpIRxWepguY-2J-55">
          <mxGeometry x="0.4286" relative="1" as="geometry">
            <mxPoint y="260" as="sourcePoint" />
            <Array as="points">
              <mxPoint x="-150" y="260" />
            </Array>
            <mxPoint as="offset" />
          </mxGeometry>
        </mxCell>
        <mxCell id="FXzULWjpIRxWepguY-2J-60" value="utilizator:Utilizator" style="shape=umlLifeline;perimeter=lifelinePerimeter;whiteSpace=wrap;html=1;container=1;collapsible=0;recursiveResize=0;outlineConnect=0;rounded=1;shadow=0;comic=0;labelBackgroundColor=none;strokeWidth=1;fontFamily=Verdana;fontSize=12;align=center;" vertex="1" parent="1">
          <mxGeometry x="850" y="80" width="130" height="330" as="geometry" />
        </mxCell>
        <mxCell id="FXzULWjpIRxWepguY-2J-61" value="" style="html=1;points=[];perimeter=orthogonalPerimeter;rounded=0;shadow=0;comic=0;labelBackgroundColor=none;strokeWidth=1;fontFamily=Verdana;fontSize=12;align=center;" vertex="1" parent="FXzULWjpIRxWepguY-2J-60">
          <mxGeometry x="60" y="85" width="10" height="60" as="geometry" />
        </mxCell>
        <mxCell id="FXzULWjpIRxWepguY-2J-62" value="" style="html=1;points=[];perimeter=orthogonalPerimeter;outlineConnect=0;targetShapes=umlLifeline;portConstraint=eastwest;newEdgeStyle={&quot;edgeStyle&quot;:&quot;elbowEdgeStyle&quot;,&quot;elbow&quot;:&quot;vertical&quot;,&quot;curved&quot;:0,&quot;rounded&quot;:0};" vertex="1" parent="FXzULWjpIRxWepguY-2J-60">
          <mxGeometry x="60" y="170" width="10" height="60" as="geometry" />
        </mxCell>
        <mxCell id="FXzULWjpIRxWepguY-2J-63" value="" style="html=1;points=[];perimeter=orthogonalPerimeter;outlineConnect=0;targetShapes=umlLifeline;portConstraint=eastwest;newEdgeStyle={&quot;edgeStyle&quot;:&quot;elbowEdgeStyle&quot;,&quot;elbow&quot;:&quot;vertical&quot;,&quot;curved&quot;:0,&quot;rounded&quot;:0};" vertex="1" parent="FXzULWjpIRxWepguY-2J-60">
          <mxGeometry x="60" y="250" width="10" height="50" as="geometry" />
        </mxCell>
        <mxCell id="FXzULWjpIRxWepguY-2J-66" value="Apasă pe Meniu" style="html=1;verticalAlign=bottom;endArrow=block;labelBackgroundColor=none;fontFamily=Verdana;fontSize=12;edgeStyle=elbowEdgeStyle;elbow=vertical;exitX=1;exitY=0.333;exitDx=0;exitDy=0;exitPerimeter=0;" edge="1" parent="1" source="FXzULWjpIRxWepguY-2J-61" target="FXzULWjpIRxWepguY-2J-50">
          <mxGeometry x="-0.0015" relative="1" as="geometry">
            <mxPoint x="940" y="180" as="sourcePoint" />
            <mxPoint as="offset" />
            <mxPoint x="1120" y="185" as="targetPoint" />
          </mxGeometry>
        </mxCell>
        <mxCell id="FXzULWjpIRxWepguY-2J-67" value="Utilizator când dorește să redea un post radio" style="shape=note;whiteSpace=wrap;html=1;size=14;verticalAlign=top;align=left;spacingTop=-6;rounded=0;shadow=0;comic=0;labelBackgroundColor=none;strokeWidth=1;fontFamily=Verdana;fontSize=12" vertex="1" parent="1">
          <mxGeometry x="860" y="10" width="120" height="55" as="geometry" />
        </mxCell>
        <mxCell id="FXzULWjpIRxWepguY-2J-68" value="TuneWave&lt;br&gt;" style="shape=note;whiteSpace=wrap;html=1;size=14;verticalAlign=top;align=left;spacingTop=-6;rounded=0;shadow=0;comic=0;labelBackgroundColor=none;strokeWidth=1;fontFamily=Verdana;fontSize=12" vertex="1" parent="1">
          <mxGeometry x="1080" y="20" width="100" height="35" as="geometry" />
        </mxCell>
        <mxCell id="FXzULWjpIRxWepguY-2J-69" value="Apasă pe Ascultare post radio" style="html=1;verticalAlign=bottom;endArrow=block;edgeStyle=elbowEdgeStyle;elbow=vertical;curved=0;rounded=0;" edge="1" parent="1" source="FXzULWjpIRxWepguY-2J-62" target="FXzULWjpIRxWepguY-2J-50">
          <mxGeometry width="80" relative="1" as="geometry">
            <mxPoint x="940" y="260" as="sourcePoint" />
            <mxPoint x="1005" y="260" as="targetPoint" />
            <Array as="points">
              <mxPoint x="940" y="260" />
            </Array>
          </mxGeometry>
        </mxCell>
        <mxCell id="FXzULWjpIRxWepguY-2J-70" value="Redă acel post radio" style="html=1;verticalAlign=bottom;endArrow=open;dashed=1;endSize=8;edgeStyle=elbowEdgeStyle;elbow=vertical;curved=0;rounded=0;" edge="1" parent="1" source="FXzULWjpIRxWepguY-2J-55" target="FXzULWjpIRxWepguY-2J-60">
          <mxGeometry relative="1" as="geometry">
            <mxPoint x="1070" y="415" as="targetPoint" />
            <Array as="points">
              <mxPoint x="1100" y="380" />
            </Array>
          </mxGeometry>
        </mxCell>
        <mxCell id="FXzULWjpIRxWepguY-2J-74" value="TuneWave:Executabil" style="shape=umlLifeline;perimeter=lifelinePerimeter;whiteSpace=wrap;html=1;container=1;collapsible=0;recursiveResize=0;outlineConnect=0;rounded=1;shadow=0;comic=0;labelBackgroundColor=none;strokeWidth=1;fontFamily=Verdana;fontSize=12;align=center;" vertex="1" parent="1">
          <mxGeometry x="250" y="520" width="140" height="570" as="geometry" />
        </mxCell>
        <mxCell id="FXzULWjpIRxWepguY-2J-75" value="" style="html=1;points=[];perimeter=orthogonalPerimeter;rounded=0;shadow=0;comic=0;labelBackgroundColor=none;strokeWidth=1;fontFamily=Verdana;fontSize=12;align=center;" vertex="1" parent="FXzULWjpIRxWepguY-2J-74">
          <mxGeometry x="65" y="100" width="10" height="30" as="geometry" />
        </mxCell>
        <mxCell id="FXzULWjpIRxWepguY-2J-76" value="Afișează meniul cu opțiuni" style="html=1;verticalAlign=bottom;endArrow=open;dashed=1;endSize=8;edgeStyle=elbowEdgeStyle;elbow=vertical;curved=0;rounded=0;" edge="1" parent="FXzULWjpIRxWepguY-2J-74" target="FXzULWjpIRxWepguY-2J-84">
          <mxGeometry relative="1" as="geometry">
            <mxPoint x="65" y="130.07" as="sourcePoint" />
            <mxPoint x="-15" y="130.07" as="targetPoint" />
          </mxGeometry>
        </mxCell>
        <mxCell id="FXzULWjpIRxWepguY-2J-77" value="" style="html=1;points=[];perimeter=orthogonalPerimeter;outlineConnect=0;targetShapes=umlLifeline;portConstraint=eastwest;newEdgeStyle={&quot;edgeStyle&quot;:&quot;elbowEdgeStyle&quot;,&quot;elbow&quot;:&quot;vertical&quot;,&quot;curved&quot;:0,&quot;rounded&quot;:0};" vertex="1" parent="FXzULWjpIRxWepguY-2J-74">
          <mxGeometry x="65" y="180" width="10" height="50" as="geometry" />
        </mxCell>
        <mxCell id="FXzULWjpIRxWepguY-2J-78" value="Modifică interfața în modul de creare playlist" style="html=1;verticalAlign=bottom;endArrow=open;dashed=1;endSize=8;edgeStyle=elbowEdgeStyle;elbow=vertical;curved=0;rounded=0;" edge="1" parent="FXzULWjpIRxWepguY-2J-74" target="FXzULWjpIRxWepguY-2J-84">
          <mxGeometry relative="1" as="geometry">
            <mxPoint x="65" y="219.65999999999997" as="sourcePoint" />
            <mxPoint x="-15" y="219.65999999999997" as="targetPoint" />
          </mxGeometry>
        </mxCell>
        <mxCell id="FXzULWjpIRxWepguY-2J-79" value="" style="html=1;points=[];perimeter=orthogonalPerimeter;outlineConnect=0;targetShapes=umlLifeline;portConstraint=eastwest;newEdgeStyle={&quot;edgeStyle&quot;:&quot;elbowEdgeStyle&quot;,&quot;elbow&quot;:&quot;vertical&quot;,&quot;curved&quot;:0,&quot;rounded&quot;:0};" vertex="1" parent="FXzULWjpIRxWepguY-2J-74">
          <mxGeometry x="70" y="260" width="10" height="40" as="geometry" />
        </mxCell>
        <mxCell id="FXzULWjpIRxWepguY-2J-80" value="Apasă pe butonul Adaugă" style="html=1;verticalAlign=bottom;endArrow=block;edgeStyle=elbowEdgeStyle;elbow=vertical;curved=0;rounded=0;" edge="1" parent="FXzULWjpIRxWepguY-2J-74" target="FXzULWjpIRxWepguY-2J-79">
          <mxGeometry x="0.4286" relative="1" as="geometry">
            <mxPoint y="260" as="sourcePoint" />
            <Array as="points">
              <mxPoint x="-150" y="260" />
            </Array>
            <mxPoint as="offset" />
          </mxGeometry>
        </mxCell>
        <mxCell id="FXzULWjpIRxWepguY-2J-81" value="" style="html=1;points=[];perimeter=orthogonalPerimeter;outlineConnect=0;targetShapes=umlLifeline;portConstraint=eastwest;newEdgeStyle={&quot;edgeStyle&quot;:&quot;elbowEdgeStyle&quot;,&quot;elbow&quot;:&quot;vertical&quot;,&quot;curved&quot;:0,&quot;rounded&quot;:0};" vertex="1" parent="FXzULWjpIRxWepguY-2J-74">
          <mxGeometry x="65" y="330.07" width="10" height="59.93" as="geometry" />
        </mxCell>
        <mxCell id="FXzULWjpIRxWepguY-2J-82" value="" style="html=1;points=[];perimeter=orthogonalPerimeter;outlineConnect=0;targetShapes=umlLifeline;portConstraint=eastwest;newEdgeStyle={&quot;edgeStyle&quot;:&quot;elbowEdgeStyle&quot;,&quot;elbow&quot;:&quot;vertical&quot;,&quot;curved&quot;:0,&quot;rounded&quot;:0};" vertex="1" parent="FXzULWjpIRxWepguY-2J-74">
          <mxGeometry x="65" y="420" width="10" height="30" as="geometry" />
        </mxCell>
        <mxCell id="FXzULWjpIRxWepguY-2J-83" value="Apasă pe butonul Salvează" style="html=1;verticalAlign=bottom;endArrow=block;edgeStyle=elbowEdgeStyle;elbow=vertical;curved=0;rounded=0;" edge="1" parent="FXzULWjpIRxWepguY-2J-74" target="FXzULWjpIRxWepguY-2J-82">
          <mxGeometry x="0.3421" relative="1" as="geometry">
            <mxPoint x="-5" y="420" as="sourcePoint" />
            <Array as="points">
              <mxPoint x="-160" y="420" />
            </Array>
            <mxPoint as="offset" />
          </mxGeometry>
        </mxCell>
        <mxCell id="FXzULWjpIRxWepguY-2J-101" value="" style="html=1;points=[];perimeter=orthogonalPerimeter;outlineConnect=0;targetShapes=umlLifeline;portConstraint=eastwest;newEdgeStyle={&quot;edgeStyle&quot;:&quot;elbowEdgeStyle&quot;,&quot;elbow&quot;:&quot;vertical&quot;,&quot;curved&quot;:0,&quot;rounded&quot;:0};" vertex="1" parent="FXzULWjpIRxWepguY-2J-74">
          <mxGeometry x="65" y="470" width="10" height="50" as="geometry" />
        </mxCell>
        <mxCell id="FXzULWjpIRxWepguY-2J-84" value="utilizator:Utilizator" style="shape=umlLifeline;perimeter=lifelinePerimeter;whiteSpace=wrap;html=1;container=1;collapsible=0;recursiveResize=0;outlineConnect=0;rounded=1;shadow=0;comic=0;labelBackgroundColor=none;strokeWidth=1;fontFamily=Verdana;fontSize=12;align=center;" vertex="1" parent="1">
          <mxGeometry x="30" y="520" width="130" height="570" as="geometry" />
        </mxCell>
        <mxCell id="FXzULWjpIRxWepguY-2J-85" value="" style="html=1;points=[];perimeter=orthogonalPerimeter;rounded=0;shadow=0;comic=0;labelBackgroundColor=none;strokeWidth=1;fontFamily=Verdana;fontSize=12;align=center;" vertex="1" parent="FXzULWjpIRxWepguY-2J-84">
          <mxGeometry x="60" y="85" width="10" height="60" as="geometry" />
        </mxCell>
        <mxCell id="FXzULWjpIRxWepguY-2J-86" value="" style="html=1;points=[];perimeter=orthogonalPerimeter;outlineConnect=0;targetShapes=umlLifeline;portConstraint=eastwest;newEdgeStyle={&quot;edgeStyle&quot;:&quot;elbowEdgeStyle&quot;,&quot;elbow&quot;:&quot;vertical&quot;,&quot;curved&quot;:0,&quot;rounded&quot;:0};" vertex="1" parent="FXzULWjpIRxWepguY-2J-84">
          <mxGeometry x="60" y="170" width="10" height="60" as="geometry" />
        </mxCell>
        <mxCell id="FXzULWjpIRxWepguY-2J-87" value="" style="html=1;points=[];perimeter=orthogonalPerimeter;outlineConnect=0;targetShapes=umlLifeline;portConstraint=eastwest;newEdgeStyle={&quot;edgeStyle&quot;:&quot;elbowEdgeStyle&quot;,&quot;elbow&quot;:&quot;vertical&quot;,&quot;curved&quot;:0,&quot;rounded&quot;:0};" vertex="1" parent="FXzULWjpIRxWepguY-2J-84">
          <mxGeometry x="60" y="250" width="10" height="50" as="geometry" />
        </mxCell>
        <mxCell id="FXzULWjpIRxWepguY-2J-88" value="" style="html=1;points=[];perimeter=orthogonalPerimeter;outlineConnect=0;targetShapes=umlLifeline;portConstraint=eastwest;newEdgeStyle={&quot;edgeStyle&quot;:&quot;elbowEdgeStyle&quot;,&quot;elbow&quot;:&quot;vertical&quot;,&quot;curved&quot;:0,&quot;rounded&quot;:0};" vertex="1" parent="FXzULWjpIRxWepguY-2J-84">
          <mxGeometry x="60" y="320" width="10" height="70" as="geometry" />
        </mxCell>
        <mxCell id="FXzULWjpIRxWepguY-2J-89" value="" style="html=1;points=[];perimeter=orthogonalPerimeter;outlineConnect=0;targetShapes=umlLifeline;portConstraint=eastwest;newEdgeStyle={&quot;edgeStyle&quot;:&quot;elbowEdgeStyle&quot;,&quot;elbow&quot;:&quot;vertical&quot;,&quot;curved&quot;:0,&quot;rounded&quot;:0};" vertex="1" parent="FXzULWjpIRxWepguY-2J-84">
          <mxGeometry x="60" y="410" width="10" height="50" as="geometry" />
        </mxCell>
        <mxCell id="FXzULWjpIRxWepguY-2J-104" value="" style="html=1;points=[];perimeter=orthogonalPerimeter;outlineConnect=0;targetShapes=umlLifeline;portConstraint=eastwest;newEdgeStyle={&quot;edgeStyle&quot;:&quot;elbowEdgeStyle&quot;,&quot;elbow&quot;:&quot;vertical&quot;,&quot;curved&quot;:0,&quot;rounded&quot;:0};" vertex="1" parent="FXzULWjpIRxWepguY-2J-84">
          <mxGeometry x="60" y="480" width="10" height="50" as="geometry" />
        </mxCell>
        <mxCell id="FXzULWjpIRxWepguY-2J-90" value="Apasă pe Meniu" style="html=1;verticalAlign=bottom;endArrow=block;labelBackgroundColor=none;fontFamily=Verdana;fontSize=12;edgeStyle=elbowEdgeStyle;elbow=vertical;exitX=1;exitY=0.333;exitDx=0;exitDy=0;exitPerimeter=0;" edge="1" parent="1" source="FXzULWjpIRxWepguY-2J-85" target="FXzULWjpIRxWepguY-2J-74">
          <mxGeometry x="-0.0015" relative="1" as="geometry">
            <mxPoint x="120" y="620" as="sourcePoint" />
            <mxPoint as="offset" />
            <mxPoint x="300" y="625" as="targetPoint" />
          </mxGeometry>
        </mxCell>
        <mxCell id="FXzULWjpIRxWepguY-2J-91" value="Utilizator când dorește să creeze un nou playlist" style="shape=note;whiteSpace=wrap;html=1;size=14;verticalAlign=top;align=left;spacingTop=-6;rounded=0;shadow=0;comic=0;labelBackgroundColor=none;strokeWidth=1;fontFamily=Verdana;fontSize=12" vertex="1" parent="1">
          <mxGeometry x="40" y="450" width="120" height="55" as="geometry" />
        </mxCell>
        <mxCell id="FXzULWjpIRxWepguY-2J-92" value="TuneWave&lt;br&gt;" style="shape=note;whiteSpace=wrap;html=1;size=14;verticalAlign=top;align=left;spacingTop=-6;rounded=0;shadow=0;comic=0;labelBackgroundColor=none;strokeWidth=1;fontFamily=Verdana;fontSize=12" vertex="1" parent="1">
          <mxGeometry x="260" y="460" width="100" height="35" as="geometry" />
        </mxCell>
        <mxCell id="FXzULWjpIRxWepguY-2J-93" value="Apasă pe Create playlist" style="html=1;verticalAlign=bottom;endArrow=block;edgeStyle=elbowEdgeStyle;elbow=vertical;curved=0;rounded=0;" edge="1" parent="1" source="FXzULWjpIRxWepguY-2J-86" target="FXzULWjpIRxWepguY-2J-74">
          <mxGeometry width="80" relative="1" as="geometry">
            <mxPoint x="120" y="700" as="sourcePoint" />
            <mxPoint x="185" y="700" as="targetPoint" />
            <Array as="points">
              <mxPoint x="120" y="700" />
            </Array>
          </mxGeometry>
        </mxCell>
        <mxCell id="FXzULWjpIRxWepguY-2J-94" value="Cere un fișier mp3" style="html=1;verticalAlign=bottom;endArrow=open;dashed=1;endSize=8;edgeStyle=elbowEdgeStyle;elbow=vertical;curved=0;rounded=0;" edge="1" parent="1" source="FXzULWjpIRxWepguY-2J-79" target="FXzULWjpIRxWepguY-2J-84">
          <mxGeometry relative="1" as="geometry">
            <mxPoint x="250" y="855" as="targetPoint" />
            <Array as="points">
              <mxPoint x="280" y="820" />
            </Array>
          </mxGeometry>
        </mxCell>
        <mxCell id="FXzULWjpIRxWepguY-2J-95" value="Selectează un fișier mp3" style="html=1;verticalAlign=bottom;endArrow=block;edgeStyle=elbowEdgeStyle;elbow=vertical;curved=0;rounded=0;" edge="1" parent="1" source="FXzULWjpIRxWepguY-2J-88" target="FXzULWjpIRxWepguY-2J-81">
          <mxGeometry relative="1" as="geometry">
            <mxPoint x="120" y="850" as="sourcePoint" />
            <Array as="points">
              <mxPoint x="243" y="850" />
            </Array>
          </mxGeometry>
        </mxCell>
        <mxCell id="FXzULWjpIRxWepguY-2J-96" value="Îl adaugă la lista de fișiere" style="html=1;verticalAlign=bottom;endArrow=open;dashed=1;endSize=8;edgeStyle=elbowEdgeStyle;elbow=vertical;curved=0;rounded=0;entryX=0.5;entryY=0.857;entryDx=0;entryDy=0;entryPerimeter=0;" edge="1" parent="1" source="FXzULWjpIRxWepguY-2J-81" target="FXzULWjpIRxWepguY-2J-88">
          <mxGeometry x="0.0016" relative="1" as="geometry">
            <mxPoint x="120" y="900" as="targetPoint" />
            <Array as="points">
              <mxPoint x="290" y="900" />
              <mxPoint x="290" y="890" />
            </Array>
            <mxPoint as="offset" />
          </mxGeometry>
        </mxCell>
        <mxCell id="FXzULWjpIRxWepguY-2J-97" value="Deschide un dialog pentru a salva fișierul" style="html=1;verticalAlign=bottom;endArrow=open;dashed=1;endSize=8;edgeStyle=elbowEdgeStyle;elbow=vertical;curved=0;rounded=0;" edge="1" parent="1" source="FXzULWjpIRxWepguY-2J-82" target="FXzULWjpIRxWepguY-2J-84">
          <mxGeometry relative="1" as="geometry">
            <mxPoint x="140" y="970" as="targetPoint" />
            <Array as="points">
              <mxPoint x="290" y="970" />
            </Array>
          </mxGeometry>
        </mxCell>
        <mxCell id="FXzULWjpIRxWepguY-2J-102" value="Introduce un nume și apasă Enter" style="html=1;verticalAlign=bottom;endArrow=block;edgeStyle=elbowEdgeStyle;elbow=vertical;curved=0;rounded=0;" edge="1" target="FXzULWjpIRxWepguY-2J-101" parent="1" source="FXzULWjpIRxWepguY-2J-84">
          <mxGeometry relative="1" as="geometry">
            <mxPoint x="240" y="990" as="sourcePoint" />
            <Array as="points">
              <mxPoint x="270" y="1000" />
            </Array>
          </mxGeometry>
        </mxCell>
        <mxCell id="FXzULWjpIRxWepguY-2J-103" value="Salvează noul fișier" style="html=1;verticalAlign=bottom;endArrow=open;dashed=1;endSize=8;edgeStyle=elbowEdgeStyle;elbow=vertical;curved=0;rounded=0;" edge="1" source="FXzULWjpIRxWepguY-2J-101" parent="1" target="FXzULWjpIRxWepguY-2J-84">
          <mxGeometry relative="1" as="geometry">
            <mxPoint x="240" y="1065" as="targetPoint" />
            <Array as="points">
              <mxPoint x="280" y="1040" />
            </Array>
          </mxGeometry>
        </mxCell>
        <mxCell id="FXzULWjpIRxWepguY-2J-105" value="TuneWave:Executabil" style="shape=umlLifeline;perimeter=lifelinePerimeter;whiteSpace=wrap;html=1;container=1;collapsible=0;recursiveResize=0;outlineConnect=0;rounded=1;shadow=0;comic=0;labelBackgroundColor=none;strokeWidth=1;fontFamily=Verdana;fontSize=12;align=center;" vertex="1" parent="1">
          <mxGeometry x="1070" y="520" width="140" height="750" as="geometry" />
        </mxCell>
        <mxCell id="FXzULWjpIRxWepguY-2J-106" value="" style="html=1;points=[];perimeter=orthogonalPerimeter;rounded=0;shadow=0;comic=0;labelBackgroundColor=none;strokeWidth=1;fontFamily=Verdana;fontSize=12;align=center;" vertex="1" parent="FXzULWjpIRxWepguY-2J-105">
          <mxGeometry x="65" y="100" width="10" height="30" as="geometry" />
        </mxCell>
        <mxCell id="FXzULWjpIRxWepguY-2J-107" value="Afișează meniul cu opțiuni" style="html=1;verticalAlign=bottom;endArrow=open;dashed=1;endSize=8;edgeStyle=elbowEdgeStyle;elbow=vertical;curved=0;rounded=0;" edge="1" parent="FXzULWjpIRxWepguY-2J-105" target="FXzULWjpIRxWepguY-2J-116">
          <mxGeometry relative="1" as="geometry">
            <mxPoint x="65" y="130.07" as="sourcePoint" />
            <mxPoint x="-15" y="130.07" as="targetPoint" />
          </mxGeometry>
        </mxCell>
        <mxCell id="FXzULWjpIRxWepguY-2J-108" value="" style="html=1;points=[];perimeter=orthogonalPerimeter;outlineConnect=0;targetShapes=umlLifeline;portConstraint=eastwest;newEdgeStyle={&quot;edgeStyle&quot;:&quot;elbowEdgeStyle&quot;,&quot;elbow&quot;:&quot;vertical&quot;,&quot;curved&quot;:0,&quot;rounded&quot;:0};" vertex="1" parent="FXzULWjpIRxWepguY-2J-105">
          <mxGeometry x="65" y="180" width="10" height="50" as="geometry" />
        </mxCell>
        <mxCell id="FXzULWjpIRxWepguY-2J-109" value="" style="html=1;verticalAlign=bottom;endArrow=open;dashed=1;endSize=8;edgeStyle=elbowEdgeStyle;elbow=vertical;curved=0;rounded=0;" edge="1" parent="FXzULWjpIRxWepguY-2J-105" target="FXzULWjpIRxWepguY-2J-116">
          <mxGeometry relative="1" as="geometry">
            <mxPoint x="65" y="219.65999999999997" as="sourcePoint" />
            <mxPoint x="-15" y="219.65999999999997" as="targetPoint" />
          </mxGeometry>
        </mxCell>
        <mxCell id="FXzULWjpIRxWepguY-2J-135" value="Cere un playlist existent" style="edgeLabel;html=1;align=center;verticalAlign=middle;resizable=0;points=[];" vertex="1" connectable="0" parent="FXzULWjpIRxWepguY-2J-109">
          <mxGeometry x="0.1426" y="-2" relative="1" as="geometry">
            <mxPoint x="20" y="-8" as="offset" />
          </mxGeometry>
        </mxCell>
        <mxCell id="FXzULWjpIRxWepguY-2J-110" value="" style="html=1;points=[];perimeter=orthogonalPerimeter;outlineConnect=0;targetShapes=umlLifeline;portConstraint=eastwest;newEdgeStyle={&quot;edgeStyle&quot;:&quot;elbowEdgeStyle&quot;,&quot;elbow&quot;:&quot;vertical&quot;,&quot;curved&quot;:0,&quot;rounded&quot;:0};" vertex="1" parent="FXzULWjpIRxWepguY-2J-105">
          <mxGeometry x="70" y="260" width="10" height="40" as="geometry" />
        </mxCell>
        <mxCell id="FXzULWjpIRxWepguY-2J-111" value="Selectează un fișier playlist" style="html=1;verticalAlign=bottom;endArrow=block;edgeStyle=elbowEdgeStyle;elbow=vertical;curved=0;rounded=0;" edge="1" parent="FXzULWjpIRxWepguY-2J-105" target="FXzULWjpIRxWepguY-2J-110">
          <mxGeometry x="0.4286" relative="1" as="geometry">
            <mxPoint y="260" as="sourcePoint" />
            <Array as="points">
              <mxPoint x="-150" y="260" />
            </Array>
            <mxPoint as="offset" />
          </mxGeometry>
        </mxCell>
        <mxCell id="FXzULWjpIRxWepguY-2J-112" value="" style="html=1;points=[];perimeter=orthogonalPerimeter;outlineConnect=0;targetShapes=umlLifeline;portConstraint=eastwest;newEdgeStyle={&quot;edgeStyle&quot;:&quot;elbowEdgeStyle&quot;,&quot;elbow&quot;:&quot;vertical&quot;,&quot;curved&quot;:0,&quot;rounded&quot;:0};" vertex="1" parent="FXzULWjpIRxWepguY-2J-105">
          <mxGeometry x="65" y="330.07" width="10" height="59.93" as="geometry" />
        </mxCell>
        <mxCell id="FXzULWjpIRxWepguY-2J-113" value="" style="html=1;points=[];perimeter=orthogonalPerimeter;outlineConnect=0;targetShapes=umlLifeline;portConstraint=eastwest;newEdgeStyle={&quot;edgeStyle&quot;:&quot;elbowEdgeStyle&quot;,&quot;elbow&quot;:&quot;vertical&quot;,&quot;curved&quot;:0,&quot;rounded&quot;:0};" vertex="1" parent="FXzULWjpIRxWepguY-2J-105">
          <mxGeometry x="65" y="420" width="10" height="30" as="geometry" />
        </mxCell>
        <mxCell id="FXzULWjpIRxWepguY-2J-114" value="Furnizează fișierul mp3" style="html=1;verticalAlign=bottom;endArrow=block;edgeStyle=elbowEdgeStyle;elbow=vertical;curved=0;rounded=0;" edge="1" parent="FXzULWjpIRxWepguY-2J-105" target="FXzULWjpIRxWepguY-2J-113">
          <mxGeometry x="0.3421" relative="1" as="geometry">
            <mxPoint x="-5" y="420" as="sourcePoint" />
            <Array as="points">
              <mxPoint x="-160" y="420" />
            </Array>
            <mxPoint as="offset" />
          </mxGeometry>
        </mxCell>
        <mxCell id="FXzULWjpIRxWepguY-2J-115" value="" style="html=1;points=[];perimeter=orthogonalPerimeter;outlineConnect=0;targetShapes=umlLifeline;portConstraint=eastwest;newEdgeStyle={&quot;edgeStyle&quot;:&quot;elbowEdgeStyle&quot;,&quot;elbow&quot;:&quot;vertical&quot;,&quot;curved&quot;:0,&quot;rounded&quot;:0};" vertex="1" parent="FXzULWjpIRxWepguY-2J-105">
          <mxGeometry x="65" y="470" width="10" height="50" as="geometry" />
        </mxCell>
        <mxCell id="FXzULWjpIRxWepguY-2J-139" value="" style="html=1;points=[];perimeter=orthogonalPerimeter;outlineConnect=0;targetShapes=umlLifeline;portConstraint=eastwest;newEdgeStyle={&quot;edgeStyle&quot;:&quot;elbowEdgeStyle&quot;,&quot;elbow&quot;:&quot;vertical&quot;,&quot;curved&quot;:0,&quot;rounded&quot;:0};" vertex="1" parent="FXzULWjpIRxWepguY-2J-105">
          <mxGeometry x="65" y="560" width="10" height="40" as="geometry" />
        </mxCell>
        <mxCell id="FXzULWjpIRxWepguY-2J-143" value="" style="html=1;points=[];perimeter=orthogonalPerimeter;outlineConnect=0;targetShapes=umlLifeline;portConstraint=eastwest;newEdgeStyle={&quot;edgeStyle&quot;:&quot;elbowEdgeStyle&quot;,&quot;elbow&quot;:&quot;vertical&quot;,&quot;curved&quot;:0,&quot;rounded&quot;:0};" vertex="1" parent="FXzULWjpIRxWepguY-2J-105">
          <mxGeometry x="65" y="650" width="10" height="30" as="geometry" />
        </mxCell>
        <mxCell id="FXzULWjpIRxWepguY-2J-116" value="utilizator:Utilizator" style="shape=umlLifeline;perimeter=lifelinePerimeter;whiteSpace=wrap;html=1;container=1;collapsible=0;recursiveResize=0;outlineConnect=0;rounded=1;shadow=0;comic=0;labelBackgroundColor=none;strokeWidth=1;fontFamily=Verdana;fontSize=12;align=center;" vertex="1" parent="1">
          <mxGeometry x="850" y="520" width="130" height="740" as="geometry" />
        </mxCell>
        <mxCell id="FXzULWjpIRxWepguY-2J-117" value="" style="html=1;points=[];perimeter=orthogonalPerimeter;rounded=0;shadow=0;comic=0;labelBackgroundColor=none;strokeWidth=1;fontFamily=Verdana;fontSize=12;align=center;" vertex="1" parent="FXzULWjpIRxWepguY-2J-116">
          <mxGeometry x="60" y="85" width="10" height="60" as="geometry" />
        </mxCell>
        <mxCell id="FXzULWjpIRxWepguY-2J-118" value="" style="html=1;points=[];perimeter=orthogonalPerimeter;outlineConnect=0;targetShapes=umlLifeline;portConstraint=eastwest;newEdgeStyle={&quot;edgeStyle&quot;:&quot;elbowEdgeStyle&quot;,&quot;elbow&quot;:&quot;vertical&quot;,&quot;curved&quot;:0,&quot;rounded&quot;:0};" vertex="1" parent="FXzULWjpIRxWepguY-2J-116">
          <mxGeometry x="60" y="170" width="10" height="60" as="geometry" />
        </mxCell>
        <mxCell id="FXzULWjpIRxWepguY-2J-119" value="" style="html=1;points=[];perimeter=orthogonalPerimeter;outlineConnect=0;targetShapes=umlLifeline;portConstraint=eastwest;newEdgeStyle={&quot;edgeStyle&quot;:&quot;elbowEdgeStyle&quot;,&quot;elbow&quot;:&quot;vertical&quot;,&quot;curved&quot;:0,&quot;rounded&quot;:0};" vertex="1" parent="FXzULWjpIRxWepguY-2J-116">
          <mxGeometry x="60" y="250" width="10" height="50" as="geometry" />
        </mxCell>
        <mxCell id="FXzULWjpIRxWepguY-2J-120" value="" style="html=1;points=[];perimeter=orthogonalPerimeter;outlineConnect=0;targetShapes=umlLifeline;portConstraint=eastwest;newEdgeStyle={&quot;edgeStyle&quot;:&quot;elbowEdgeStyle&quot;,&quot;elbow&quot;:&quot;vertical&quot;,&quot;curved&quot;:0,&quot;rounded&quot;:0};" vertex="1" parent="FXzULWjpIRxWepguY-2J-116">
          <mxGeometry x="60" y="320" width="10" height="70" as="geometry" />
        </mxCell>
        <mxCell id="FXzULWjpIRxWepguY-2J-121" value="" style="html=1;points=[];perimeter=orthogonalPerimeter;outlineConnect=0;targetShapes=umlLifeline;portConstraint=eastwest;newEdgeStyle={&quot;edgeStyle&quot;:&quot;elbowEdgeStyle&quot;,&quot;elbow&quot;:&quot;vertical&quot;,&quot;curved&quot;:0,&quot;rounded&quot;:0};" vertex="1" parent="FXzULWjpIRxWepguY-2J-116">
          <mxGeometry x="60" y="410" width="10" height="50" as="geometry" />
        </mxCell>
        <mxCell id="FXzULWjpIRxWepguY-2J-122" value="" style="html=1;points=[];perimeter=orthogonalPerimeter;outlineConnect=0;targetShapes=umlLifeline;portConstraint=eastwest;newEdgeStyle={&quot;edgeStyle&quot;:&quot;elbowEdgeStyle&quot;,&quot;elbow&quot;:&quot;vertical&quot;,&quot;curved&quot;:0,&quot;rounded&quot;:0};" vertex="1" parent="FXzULWjpIRxWepguY-2J-116">
          <mxGeometry x="60" y="480" width="10" height="50" as="geometry" />
        </mxCell>
        <mxCell id="FXzULWjpIRxWepguY-2J-142" value="" style="html=1;points=[];perimeter=orthogonalPerimeter;outlineConnect=0;targetShapes=umlLifeline;portConstraint=eastwest;newEdgeStyle={&quot;edgeStyle&quot;:&quot;elbowEdgeStyle&quot;,&quot;elbow&quot;:&quot;vertical&quot;,&quot;curved&quot;:0,&quot;rounded&quot;:0};" vertex="1" parent="FXzULWjpIRxWepguY-2J-116">
          <mxGeometry x="60" y="560" width="10" height="50" as="geometry" />
        </mxCell>
        <mxCell id="FXzULWjpIRxWepguY-2J-146" value="" style="html=1;points=[];perimeter=orthogonalPerimeter;outlineConnect=0;targetShapes=umlLifeline;portConstraint=eastwest;newEdgeStyle={&quot;edgeStyle&quot;:&quot;elbowEdgeStyle&quot;,&quot;elbow&quot;:&quot;vertical&quot;,&quot;curved&quot;:0,&quot;rounded&quot;:0};" vertex="1" parent="FXzULWjpIRxWepguY-2J-116">
          <mxGeometry x="60" y="640" width="10" height="50" as="geometry" />
        </mxCell>
        <mxCell id="FXzULWjpIRxWepguY-2J-123" value="Apasă pe Meniu" style="html=1;verticalAlign=bottom;endArrow=block;labelBackgroundColor=none;fontFamily=Verdana;fontSize=12;edgeStyle=elbowEdgeStyle;elbow=vertical;exitX=1;exitY=0.333;exitDx=0;exitDy=0;exitPerimeter=0;" edge="1" parent="1" source="FXzULWjpIRxWepguY-2J-117" target="FXzULWjpIRxWepguY-2J-105">
          <mxGeometry x="-0.0015" relative="1" as="geometry">
            <mxPoint x="940" y="620" as="sourcePoint" />
            <mxPoint as="offset" />
            <mxPoint x="1120" y="625" as="targetPoint" />
          </mxGeometry>
        </mxCell>
        <mxCell id="FXzULWjpIRxWepguY-2J-124" value="Utilizator când dorește să modifice un playlist existent" style="shape=note;whiteSpace=wrap;html=1;size=14;verticalAlign=top;align=left;spacingTop=-6;rounded=0;shadow=0;comic=0;labelBackgroundColor=none;strokeWidth=1;fontFamily=Verdana;fontSize=12" vertex="1" parent="1">
          <mxGeometry x="860" y="450" width="120" height="55" as="geometry" />
        </mxCell>
        <mxCell id="FXzULWjpIRxWepguY-2J-125" value="TuneWave&lt;br&gt;" style="shape=note;whiteSpace=wrap;html=1;size=14;verticalAlign=top;align=left;spacingTop=-6;rounded=0;shadow=0;comic=0;labelBackgroundColor=none;strokeWidth=1;fontFamily=Verdana;fontSize=12" vertex="1" parent="1">
          <mxGeometry x="1080" y="460" width="100" height="35" as="geometry" />
        </mxCell>
        <mxCell id="FXzULWjpIRxWepguY-2J-126" value="Apasă pe Modifica playlist existent" style="html=1;verticalAlign=bottom;endArrow=block;edgeStyle=elbowEdgeStyle;elbow=vertical;curved=0;rounded=0;" edge="1" parent="1" source="FXzULWjpIRxWepguY-2J-118" target="FXzULWjpIRxWepguY-2J-105">
          <mxGeometry width="80" relative="1" as="geometry">
            <mxPoint x="940" y="700" as="sourcePoint" />
            <mxPoint x="1005" y="700" as="targetPoint" />
            <Array as="points">
              <mxPoint x="940" y="700" />
            </Array>
          </mxGeometry>
        </mxCell>
        <mxCell id="FXzULWjpIRxWepguY-2J-127" value="Modifică interfața în modul de editare playlist" style="html=1;verticalAlign=bottom;endArrow=open;dashed=1;endSize=8;edgeStyle=elbowEdgeStyle;elbow=vertical;curved=0;rounded=0;" edge="1" parent="1" source="FXzULWjpIRxWepguY-2J-110" target="FXzULWjpIRxWepguY-2J-116">
          <mxGeometry relative="1" as="geometry">
            <mxPoint x="1070" y="855" as="targetPoint" />
            <Array as="points">
              <mxPoint x="1100" y="820" />
            </Array>
          </mxGeometry>
        </mxCell>
        <mxCell id="FXzULWjpIRxWepguY-2J-128" value="Apasă butonul adaugă fișier" style="html=1;verticalAlign=bottom;endArrow=block;edgeStyle=elbowEdgeStyle;elbow=vertical;curved=0;rounded=0;" edge="1" parent="1" source="FXzULWjpIRxWepguY-2J-120" target="FXzULWjpIRxWepguY-2J-112">
          <mxGeometry relative="1" as="geometry">
            <mxPoint x="940" y="850" as="sourcePoint" />
            <Array as="points">
              <mxPoint x="1063" y="850" />
            </Array>
          </mxGeometry>
        </mxCell>
        <mxCell id="FXzULWjpIRxWepguY-2J-129" value="Cere un fișier de adăugat" style="html=1;verticalAlign=bottom;endArrow=open;dashed=1;endSize=8;edgeStyle=elbowEdgeStyle;elbow=vertical;curved=0;rounded=0;entryX=0.5;entryY=0.857;entryDx=0;entryDy=0;entryPerimeter=0;" edge="1" parent="1" source="FXzULWjpIRxWepguY-2J-112" target="FXzULWjpIRxWepguY-2J-120">
          <mxGeometry x="0.0016" relative="1" as="geometry">
            <mxPoint x="940" y="900" as="targetPoint" />
            <Array as="points">
              <mxPoint x="1110" y="900" />
              <mxPoint x="1110" y="890" />
            </Array>
            <mxPoint as="offset" />
          </mxGeometry>
        </mxCell>
        <mxCell id="FXzULWjpIRxWepguY-2J-130" value="Adaugă la lista curentă de melodii" style="html=1;verticalAlign=bottom;endArrow=open;dashed=1;endSize=8;edgeStyle=elbowEdgeStyle;elbow=vertical;curved=0;rounded=0;" edge="1" parent="1" source="FXzULWjpIRxWepguY-2J-113" target="FXzULWjpIRxWepguY-2J-116">
          <mxGeometry relative="1" as="geometry">
            <mxPoint x="960" y="970" as="targetPoint" />
            <Array as="points">
              <mxPoint x="1110" y="970" />
            </Array>
          </mxGeometry>
        </mxCell>
        <mxCell id="FXzULWjpIRxWepguY-2J-131" value="Apasă pe butonul Ștergere index selectat" style="html=1;verticalAlign=bottom;endArrow=block;edgeStyle=elbowEdgeStyle;elbow=vertical;curved=0;rounded=0;" edge="1" parent="1" source="FXzULWjpIRxWepguY-2J-116" target="FXzULWjpIRxWepguY-2J-115">
          <mxGeometry relative="1" as="geometry">
            <mxPoint x="1060" y="990" as="sourcePoint" />
            <Array as="points">
              <mxPoint x="1090" y="1000" />
            </Array>
          </mxGeometry>
        </mxCell>
        <mxCell id="FXzULWjpIRxWepguY-2J-132" value="Șterge melodia de la indexul selectat&lt;br&gt;din listă" style="html=1;verticalAlign=bottom;endArrow=open;dashed=1;endSize=8;edgeStyle=elbowEdgeStyle;elbow=vertical;curved=0;rounded=0;" edge="1" parent="1" source="FXzULWjpIRxWepguY-2J-115" target="FXzULWjpIRxWepguY-2J-116">
          <mxGeometry x="0.0446" relative="1" as="geometry">
            <mxPoint x="1060" y="1065" as="targetPoint" />
            <Array as="points">
              <mxPoint x="1100" y="1040" />
            </Array>
            <mxPoint as="offset" />
          </mxGeometry>
        </mxCell>
        <mxCell id="FXzULWjpIRxWepguY-2J-140" value="Apasă pe butonul Salvează playlist modificat" style="html=1;verticalAlign=bottom;endArrow=block;edgeStyle=elbowEdgeStyle;elbow=vertical;curved=0;rounded=0;" edge="1" target="FXzULWjpIRxWepguY-2J-139" parent="1" source="FXzULWjpIRxWepguY-2J-116">
          <mxGeometry relative="1" as="geometry">
            <mxPoint x="1065" y="1090" as="sourcePoint" />
            <Array as="points">
              <mxPoint x="1050" y="1080" />
            </Array>
          </mxGeometry>
        </mxCell>
        <mxCell id="FXzULWjpIRxWepguY-2J-141" value="Deschide un dialog pentru a salva fișierul" style="html=1;verticalAlign=bottom;endArrow=open;dashed=1;endSize=8;edgeStyle=elbowEdgeStyle;elbow=vertical;curved=0;rounded=0;" edge="1" source="FXzULWjpIRxWepguY-2J-139" parent="1" target="FXzULWjpIRxWepguY-2J-116">
          <mxGeometry relative="1" as="geometry">
            <mxPoint x="1000" y="1120" as="targetPoint" />
            <Array as="points">
              <mxPoint x="1110" y="1120" />
            </Array>
          </mxGeometry>
        </mxCell>
        <mxCell id="FXzULWjpIRxWepguY-2J-145" value="Salvează fișierul modificat" style="html=1;verticalAlign=bottom;endArrow=open;dashed=1;endSize=8;edgeStyle=elbowEdgeStyle;elbow=vertical;curved=0;rounded=0;" edge="1" source="FXzULWjpIRxWepguY-2J-143" parent="1" target="FXzULWjpIRxWepguY-2J-116">
          <mxGeometry relative="1" as="geometry">
            <mxPoint x="1010" y="1200" as="targetPoint" />
            <Array as="points">
              <mxPoint x="1110" y="1200" />
            </Array>
          </mxGeometry>
        </mxCell>
        <mxCell id="FXzULWjpIRxWepguY-2J-144" value="Introduce/ selectează fișierul modificat&amp;nbsp;&lt;br&gt;și apasă Enter" style="html=1;verticalAlign=bottom;endArrow=block;edgeStyle=elbowEdgeStyle;elbow=vertical;curved=0;rounded=0;" edge="1" target="FXzULWjpIRxWepguY-2J-143" parent="1" source="FXzULWjpIRxWepguY-2J-116">
          <mxGeometry x="0.0023" relative="1" as="geometry">
            <mxPoint x="1065" y="1170" as="sourcePoint" />
            <Array as="points">
              <mxPoint x="1000" y="1170" />
            </Array>
            <mxPoint as="offset" />
          </mxGeometry>
        </mxCell>
      </root>
    </mxGraphModel>
  </diagram>
</mxfile>
